<?xml version="1.0" encoding="UTF-8" standalone="no"?>
<svg width="166px" height="31px" viewBox="0 0 166 31" version="1.1" xmlns="http://www.w3.org/2000/svg" xmlns:xlink="http://www.w3.org/1999/xlink">
    <!-- Generator: Sketch 39 (31667) - http://www.bohemiancoding.com/sketch -->
    <title>img_publisher_logo</title>
    <desc>Created with Sketch.</desc>
    <defs></defs>
    <g id="Symbols" stroke="none" stroke-width="1" fill="none" fill-rule="evenodd">
        <g id="Footer-/-Logged-In" transform="translate(-25.000000, -32.000000)" fill="#5AC8FA">
            <g id="Group-2" transform="translate(25.000000, 32.000000)">
                <g id="img_publisher_logo">
                    <path d="M13.455,21.2025 L18.4625,23.3925 C18.96625,21.78625 19.3425,20.1225 19.63125,18.4575 L13.455,21.2025 L13.455,21.2025 Z" id="Shape"></path>
                    <ellipse id="Oval" cx="10.23" cy="11.875" rx="1.875" ry="1.875"></ellipse>
                    <path d="M0.90375,18.43875 C2.69,28.81375 5.80125,30 10.26875,30 C13.95125,30 16.0675,28.8775 17.5675,25.73 L0.90375,18.43875 L0.90375,18.43875 Z" id="Shape"></path>
                    <path d="M10.35375,19.845 L20.03875,15.54125 C20.3825,12.31 20.275,10.0975 20.26875,10 C20.26875,4.205 16.0625,0 10.26875,0 C4.47375,0 0.26875,4.205 0.27,9.9325 C0.2625,10.07375 0.155,12.29875 0.5,15.53375 L10.35375,19.845 L10.35375,19.845 Z M10.26875,3.75 C13.72,3.75 16.51875,6.5475 16.51875,10 C16.51875,13.45125 13.72,16.25 10.26875,16.25 C6.8175,16.25 4.01875,13.45125 4.01875,10 C4.01875,6.5475 6.8175,3.75 10.26875,3.75 L10.26875,3.75 Z" id="Shape"></path>
                    <path d="M55.1,19.6 C55.1,17.08 53.39,15.01 51.26,14.68 C53.15,14.29 54.71,12.61 54.71,10.09 C54.71,7.42 52.76,4.99 48.95,4.99 L40.82,4.99 C39.5,4.99 38.42,6.07 38.42,7.39 L38.42,22.6 C38.42,23.92 39.5,25 40.82,25 L49.28,25 C53.09,25 55.1,22.6 55.1,19.6 L55.1,19.6 Z M50.36,10.84 C50.36,12.1 49.46,13 48.02,13 L42.68,13 L42.68,8.65 L48.02,8.65 C49.46,8.65 50.36,9.58 50.36,10.84 L50.36,10.84 Z M50.75,19 C50.75,20.44 49.79,21.31 48.17,21.31 L42.68,21.31 L42.68,16.66 L48.17,16.66 C49.85,16.66 50.75,17.74 50.75,19 L50.75,19 Z M70.73,23.29 L70.73,15.64 C70.73,11.47 67.7,10.15 64.4,10.15 C62.72,10.15 59.48,10.75 58.58,12.19 C58.46,12.4 58.37,12.67 58.37,12.94 C58.37,13.84 59.12,14.41 59.81,14.41 C60.05,14.41 60.29,14.32 60.5,14.2 C61.49,13.54 62.6,13.27 63.74,13.27 C65.66,13.27 66.92,14.23 66.92,15.7 L66.92,17.65 C65.96,16.51 64.25,15.88 62.33,15.88 C60.02,15.88 57.29,17.17 57.29,20.56 C57.29,23.8 60.02,25.36 62.33,25.36 C64.22,25.36 65.93,24.67 66.92,23.5 C66.92,24.94 68.27,25.18 68.57,25.18 L68.87,25.18 C69.89,25.18 70.73,24.34 70.73,23.29 L70.73,23.29 Z M66.92,21.52 C66.29,22.36 65.09,22.78 63.86,22.78 C62.36,22.78 61.13,22 61.13,20.65 C61.13,19.24 62.36,18.46 63.86,18.46 C65.09,18.46 66.29,18.88 66.92,19.72 L66.92,21.52 Z M89.21,17.77 C89.21,13.03 86.48,10.15 82.79,10.15 C81.08,10.15 79.46,10.9 78.32,12.37 L78.32,6.67 C78.32,5.65 77.48,4.81 76.46,4.81 C75.35,4.81 74.51,5.65 74.51,6.67 L74.51,23.29 C74.51,24.34 75.35,25.18 76.4,25.18 C77.48,25.18 78.32,24.34 78.32,23.29 L78.32,23.14 C79.46,24.58 81.05,25.36 82.79,25.36 C86.45,25.36 89.21,22.6 89.21,17.77 L89.21,17.77 Z M85.28,17.77 C85.28,20.29 83.81,21.97 81.59,21.97 C80.36,21.97 78.95,21.28 78.32,20.35 L78.32,15.22 C78.95,14.26 80.36,13.54 81.59,13.54 C83.81,13.54 85.28,15.25 85.28,17.77 L85.28,17.77 Z M104.93,12.19 C104.93,11.26 104.21,10.33 103.07,10.33 C102.26,10.33 101.51,10.84 101.24,11.59 L97.88,20.59 L94.52,11.59 C94.22,10.81 93.5,10.33 92.75,10.33 C91.58,10.33 90.83,11.29 90.83,12.22 C90.83,12.43 90.86,12.64 90.95,12.85 L95.9,25.21 L95.36,26.44 C95.09,27.04 94.55,27.34 93.92,27.46 C93.77,27.49 93.59,27.49 93.44,27.49 C92.36,27.49 91.64,28.27 91.64,29.17 C91.64,30.22 92.66,30.88 93.98,30.88 C96.11,30.88 97.94,29.89 98.96,27.37 L104.81,12.88 C104.9,12.67 104.93,12.43 104.93,12.19 L104.93,12.19 Z M121.91,6.88 C121.91,5.83 121.07,4.99 120.08,4.99 L109.97,4.99 C108.65,4.99 107.57,6.07 107.57,7.39 L107.57,23.08 C107.57,24.22 108.53,25.18 109.67,25.18 C110.87,25.18 111.83,24.22 111.83,23.08 L111.83,16.72 L119.87,16.72 C120.86,16.72 121.7,15.88 121.7,14.86 C121.7,13.81 120.86,12.97 119.87,12.97 L111.83,12.97 L111.83,8.74 L120.08,8.74 C121.07,8.74 121.91,7.9 121.91,6.88 L121.91,6.88 Z M126.5,4.42 C125.27,4.42 124.22,5.41 124.22,6.67 C124.22,7.93 125.27,8.95 126.5,8.95 C127.76,8.95 128.78,7.93 128.78,6.67 C128.78,5.41 127.76,4.42 126.5,4.42 L126.5,4.42 Z M128.42,23.29 L128.42,12.19 C128.42,11.17 127.58,10.33 126.56,10.33 C125.45,10.33 124.61,11.17 124.61,12.19 L124.61,23.29 C124.61,24.34 125.45,25.18 126.5,25.18 C127.58,25.18 128.42,24.34 128.42,23.29 L128.42,23.29 Z M140.81,11.95 C140.81,11.08 140.24,10.39 139.13,10.39 C137.69,10.39 136.73,11.53 136.01,12.49 L136.01,12.19 C136.01,11.17 135.17,10.33 134.15,10.33 C133.04,10.33 132.2,11.17 132.2,12.19 L132.2,23.29 C132.2,24.34 133.04,25.18 134.09,25.18 L134.15,25.18 C135.17,25.18 136.01,24.34 136.01,23.29 L136.01,15.43 C136.7,14.53 137.81,14.05 138.98,13.9 C140.03,13.75 140.81,13.09 140.81,11.95 L140.81,11.95 Z M154.49,20.71 C154.49,14.86 145.91,16.66 145.91,14.5 C145.91,13.69 146.81,13.06 148.19,13.06 C149.36,13.06 150.53,13.39 151.46,13.93 C151.67,14.05 151.94,14.11 152.18,14.11 C152.96,14.11 153.68,13.48 153.68,12.67 C153.68,12.4 153.59,12.13 153.44,11.92 C152.63,10.75 150.05,10.15 148.16,10.15 C144.35,10.15 142.22,12.28 142.22,14.71 C142.22,20.41 150.83,18.46 150.83,20.86 C150.83,21.76 150.05,22.42 148.4,22.42 C147.14,22.42 145.64,21.91 144.5,21.25 C144.26,21.1 143.99,21.04 143.72,21.04 C142.91,21.04 142.13,21.73 142.13,22.63 C142.13,22.93 142.22,23.2 142.4,23.44 C143.3,24.73 146.33,25.36 148.22,25.36 C152.24,25.36 154.49,23.35 154.49,20.71 L154.49,20.71 Z M165.23,23.62 C165.23,22.69 164.63,21.97 163.55,21.97 L163.22,21.97 C162.62,21.97 161.9,21.52 161.9,20.38 L161.9,13.84 L163.4,13.84 C164.27,13.84 165.02,13.09 165.02,12.19 C165.02,11.26 164.27,10.51 163.4,10.51 L161.9,10.51 L161.9,8.26 C161.9,7.21 161.06,6.37 160.01,6.37 C158.9,6.37 158.06,7.21 158.06,8.26 L158.06,10.51 L157.13,10.51 C156.23,10.51 155.48,11.26 155.48,12.13 C155.48,13.09 156.23,13.84 157.13,13.84 L158.06,13.84 L158.06,21.4 C158.06,23.98 159.5,25.36 162.17,25.36 C164.66,25.36 165.23,24.58 165.23,23.62 L165.23,23.62 Z" id="BabyFirst"></path>
                </g>
            </g>
        </g>
    </g>
</svg>